<svg xmlns:xlink="http://www.w3.org/1999/xlink" xmlns="http://www.w3.org/2000/svg" viewBox="0 0 256 256" class="s-w-[1.5rem]" aria-hidden="true" role="img" data-testid="icon" width="256"  height="256" ><path fill="none" d="M0 0h256v256H0z"></path><path fill="none" stroke="#0F0F0F" stroke-linecap="round" stroke-linejoin="round" stroke-width="16px" d="M184 80h42.58a8 8 0 0 1 7.42 5l14 35M24 144h160"></path><circle cx="192" cy="192" r="24" fill="none" stroke="#0F0F0F" stroke-linecap="round" stroke-linejoin="round" stroke-width="16px"></circle><circle cx="80" cy="192" r="24" fill="none" stroke="#0F0F0F" stroke-linecap="round" stroke-linejoin="round" stroke-width="16px"></circle><path fill="none" stroke="#0F0F0F" stroke-linecap="round" stroke-linejoin="round" stroke-width="16px" d="M168 192h-64M184 120h64v64a8 8 0 0 1-8 8h-24M56 192H32a8 8 0 0 1-8-8V72a8 8 0 0 1 8-8h152v105.37"></path></svg>