<svg xmlns="http://www.w3.org/2000/svg" viewBox="0 0 256 256" class="s-w-[1.5rem] lg:s-w-[2rem]" aria-hidden="true" role="img" data-testid="icon" xmlns:xlink="http://www.w3.org/1999/xlink"><path fill="none" d="M0 0h256v256H0z"></path><path d="M232 128a104.16 104.16 0 0 1-91.55 103.26 4 4 0 0 1-4.45-4V152h24a8 8 0 0 0 8-8.53 8.17 8.17 0 0 0-8.25-7.47H136v-24a16 16 0 0 1 16-16h16a8 8 0 0 0 8-8.53 8.17 8.17 0 0 0-8.27-7.47H152a32 32 0 0 0-32 32v24H96a8 8 0 0 0-8 8.53 8.17 8.17 0 0 0 8.27 7.47H120v75.28a4 4 0 0 1-4.44 4 104.15 104.15 0 0 1-91.49-107.19c2-54 45.74-97.9 99.78-100A104.12 104.12 0 0 1 232 128"></path></svg>