<svg xmlns="http://www.w3.org/2000/svg" viewBox="0 0 256 256" class="s-w-[1.5rem] lg:s-w-[2rem]" aria-hidden="true" role="img" data-testid="icon" xmlns:xlink="http://www.w3.org/1999/xlink"><path fill="none" d="M0 0h256v256H0z"></path><path d="M160 128a32 32 0 1 1-32-32 32 32 0 0 1 32 32m72-48v96a56.06 56.06 0 0 1-56 56H80a56.06 56.06 0 0 1-56-56V80a56.06 56.06 0 0 1 56-56h96a56.06 56.06 0 0 1 56 56m-56 48a48 48 0 1 0-48 48 48.05 48.05 0 0 0 48-48m24-60a12 12 0 1 0-12 12 12 12 0 0 0 12-12"></path></svg>