<svg xmlns:xlink="http://www.w3.org/1999/xlink" xmlns="http://www.w3.org/2000/svg" viewBox="0 0 256 256" class="s-w-[1.5rem]" aria-hidden="true" role="img" data-testid="icon" width="256"  height="256" ><path fill="none" d="M0 0h256v256H0z"></path><path fill="none" stroke="#0F0F0F" stroke-linecap="round" stroke-linejoin="round" stroke-width="16px" d="M128 129.09v102.88M32.7 76.92l95.3 52.16 95.3-52.16"></path><path fill="none" stroke="#0F0F0F" stroke-linecap="round" stroke-linejoin="round" stroke-width="16px" d="m219.84 182.84-88 48.18a8 8 0 0 1-7.68 0l-88-48.18a8 8 0 0 1-4.16-7V80.18a8 8 0 0 1 4.16-7l88-48.18a8 8 0 0 1 7.68 0l88 48.18a8 8 0 0 1 4.16 7v95.64a8 8 0 0 1-4.16 7.02"></path><path fill="none" stroke="#0F0F0F" stroke-linecap="round" stroke-linejoin="round" stroke-width="16px" d="M81.56 48.31 176 100v52"></path></svg>