<svg xmlns:xlink="http://www.w3.org/1999/xlink" xmlns="http://www.w3.org/2000/svg" viewBox="0 0 127 35" class="s-fill-content-primary s-h-[48px]" aria-hidden="true" width="174"  height="48" ><path fill-rule="evenodd" d="m17.7 13.2.3-1.8v-.2c.2-1 0-1.3-1-1.4h-6.3a4 4 0 0 0-.6 0 1.1 1.1 0 0 0-1 .8 1.3 1.3 0 0 0 .3 1.5l1.2.6 10.3 4 .8.3c1 .6 1.5 1.3 1.3 2.5-.2 1.6-.5 3.2-1 4.8-.5 2.1-1.7 3-4 3.3H4.7c-1 0-1.8 0-2.7-.4a2.8 2.8 0 0 1-2-2.5c0-1.2.3-2.4.5-3.5l.2-1.7c0-.2.1-.2.3-.2h6c.3 0 .4 0 .3.2-.1.7-.3 1.4-.3 2.2-.1.8.2 1.2 1 1.2h6.5c.8 0 1.1-.3 1.3-.9.2-.8 0-1.3-.6-1.8-.9-.5-1.9-.8-2.8-1.1a2416 2416 0 0 0-8-3.1c-1.2-.8-1.9-1.8-1.7-3.3.1-1.5.4-3 .8-4.5.5-1.9 1.9-2.8 3.8-3l2-.2h11.9l1.8.3c.5 0 1 .4 1.4.8.4.5.6 1 .6 1.6 0 1-.2 2-.4 3 0 .8-.2 1.5-.3 2.2 0 .2 0 .3-.3.3zm96.3 14a31 31 0 0 1-6-.4c-.8-.1-1.5-.4-2.2-.8a3.6 3.6 0 0 1-1.8-2.9c-.1-1 0-2 .2-3q0-.3.3-.3h1.7c.2 0 .3 0 .2.3l-.3 1.7c-.1 1.4.4 2.3 1.8 2.8 1.2.4 2.5.7 3.7.7a44.6 44.6 0 0 0 8.8-.5 3.4 3.4 0 0 0 2.6-3v-.4c.2-1.4-.2-2-1.4-2.7l-4.2-1.5-7.9-2.5-1-.4c-2-1-2.6-2.4-2.2-4.5.6-2.3 2.1-3.5 4.3-4a33.1 33.1 0 0 1 13.3 0c2 .6 2.9 1.8 3 3.9 0 .8-.1 1.7-.3 2.5 0 .1-.1.2-.3.2h-1.7c-.3 0-.3-.1-.2-.3a9 9 0 0 0 .3-2.2c0-1.2-.6-2-1.7-2.4-1.2-.4-2.5-.5-3.7-.6h-6c-1 .2-2.1.3-3.2.8a3.3 3.3 0 0 0-1.7 3.6 1.9 1.9 0 0 0 1 1.2l2.2.8a3498 3498 0 0 0 11.7 4c1.5.8 2.1 2.1 2 3.8l-.3 1.5c-.4 1.9-1.6 3-3.5 3.6-1.5.5-3 .8-4.7.9zM85.4 5.3l-2 11.3c-.3 1.1-.5 2.3-.6 3.4-.4 2.5.8 4.2 3.3 4.8 2.6.6 5.3.6 7.9 0a6 6 0 0 0 4.8-5.2l1.5-8.4 1-5.6c0-.2.1-.3.4-.3h1.9l-1.5 8.2-1 6.2a8.4 8.4 0 0 1-7 7c-3 .7-6.1.7-9 0-1.3-.4-2.5-1-3.4-2-1.2-1.4-1.4-3-1.2-4.8l1.8-10 .7-4.2c.1-.3.2-.4.5-.4zM67.2 26.7h-8.7c-.3 0-.3 0-.3-.3L61 10.9l1-5.3c0-.2 0-.3.3-.3h1.5c.4 0 .4 0 .4.4l-1 5-1.8 10.6-.6 3.2c0 .3 0 .4.3.4h15c.5 0 .5 0 .4.4 0 .5-.1.7-.3 1.4zM25.5 35A9206 9206 0 0 0 31.8.2c0-.1 0-.2.3-.2h1.6c.2 0 .2 0 .2.3a571 571 0 0 0-3.2 18L28.5 30l-.8 4.6q0 .3-.3.3h-1.9Zm12-21-2.3 12.7H37c.4 0 .5 0 .5-.4l.6-3.1.7-4c0-.3.2-.3.5-.3H49l3-.3c2.6-.6 4.4-1.9 5.2-4.4.3-1.2.6-2.4.7-3.6.3-2.2-.7-3.8-2.8-4.6-1.3-.5-2.5-.7-3.8-.7h-12c-.2 0-.3 0-.4.3l-1.5 8.5Zm2 3h9.3c1 0 1.9 0 2.8-.3 2-.4 3.3-1.4 3.7-3.4l.3-1.5a110 110 0 0 1 .2-1.2c.1-1.6-.6-2.6-2.2-3-1.2-.4-2.4-.5-3.7-.5h-8.6c-.3 0-.4.1-.4.5l-1.6 9c-.1.4 0 .4.3.4Z" clip-rule="evenodd" fill="#FFFFFF"></path></svg>